HIERARCHY
ROOT Hips
{
    OFFSET 0.000000 0.000000 0.000000
    CHANNELS 6 Xposition Yposition Zposition Zrotation Xrotation Yrotation
    JOINT Spine
    {
        OFFSET -0.000000 7.236184 0.000000
        CHANNELS 3 Zrotation Xrotation Yrotation
        JOINT Spine1
        {
            OFFSET -0.000000 20.420147 0.000000
            CHANNELS 3 Zrotation Xrotation Yrotation
            JOINT Neck
            {
                OFFSET -0.000000 20.336288 1.848754
                CHANNELS 3 Zrotation Xrotation Yrotation
                JOINT Head
                {
                    OFFSET -0.000000 12.354461 -1.764923
                    CHANNELS 3 Zrotation Xrotation Yrotation
                    End Site
                    {
                        OFFSET -0.000000 22.061537 0.000000
                    }
                }
            }
            JOINT LeftShoulder
            {
                OFFSET 3.573296 18.396038 -0.314103
                CHANNELS 3 Zrotation Xrotation Yrotation
                JOINT LeftArm
                {
                    OFFSET 10.880760 0.000000 0.000000
                    CHANNELS 3 Zrotation Xrotation Yrotation
                    JOINT LeftForeArm
                    {
                        OFFSET 27.185530 0.000000 0.000000
                        CHANNELS 3 Zrotation Xrotation Yrotation
                        JOINT LeftHand
                        {
                            OFFSET 27.825975 0.000000 0.000000
                            CHANNELS 3 Zrotation Xrotation Yrotation
                            End Site
                            {
                                OFFSET 13.236923 0.000000 0.000000
                            }
                        }
                    }
                }
            }
            JOINT RightShoulder
            {
                OFFSET -3.474926 18.396038 -0.314103
                CHANNELS 3 Zrotation Xrotation Yrotation
                JOINT RightArm
                {
                    OFFSET -10.880760 0.000000 0.000000
                    CHANNELS 3 Zrotation Xrotation Yrotation
                    JOINT RightForeArm
                    {
                        OFFSET -27.185530 0.000000 0.000000
                        CHANNELS 3 Zrotation Xrotation Yrotation
                        JOINT RightHand
                        {
                            OFFSET -27.825975 0.000000 0.000000
                            CHANNELS 3 Zrotation Xrotation Yrotation
                            End Site
                            {
                                OFFSET -13.236923 0.000000 0.000000
                            }
                        }
                    }
                }
            }
        }
    }
    JOINT LeftUpLeg
    {
        OFFSET 8.824615 0.000000 0.000000
        CHANNELS 3 Zrotation Xrotation Yrotation
        JOINT LeftLeg
        {
            OFFSET -0.000000 -35.111282 0.000000
            CHANNELS 3 Zrotation Xrotation Yrotation
            JOINT LeftFoot
            {
                OFFSET -0.000000 -42.324711 0.000000
                CHANNELS 3 Zrotation Xrotation Yrotation
                JOINT LeftToeBase
                {
                    OFFSET -0.000000 -5.735999 13.236923
                    CHANNELS 3 Zrotation Xrotation Yrotation
                    End Site
                    {
                        OFFSET -0.000000 0.000000 3.529846
                    }
                }
            }
        }
    }
    JOINT RightUpLeg
    {
        OFFSET -8.824615 0.000000 0.000000
        CHANNELS 3 Zrotation Xrotation Yrotation
        JOINT RightLeg
        {
            OFFSET -0.000000 -35.111282 0.000000
            CHANNELS 3 Zrotation Xrotation Yrotation
            JOINT RightFoot
            {
                OFFSET -0.000000 -42.324711 0.000000
                CHANNELS 3 Zrotation Xrotation Yrotation
                JOINT RightToeBase
                {
                    OFFSET -0.000000 -5.735999 13.236923
                    CHANNELS 3 Zrotation Xrotation Yrotation
                    End Site
                    {
                        OFFSET -0.000000 0.000000 3.529846
                    }
                }
            }
        }
    }
}
MOTION
Frames:    12
Frame Time:    0.008333
-5.057047    81.814819    115.910355    -0.460342    -8.397983    -178.839874    -1.092873    -7.881300    0.940310    0.244880    5.779155    1.003218    3.754526    -1.084727    0.211090    -1.697170    -33.602955    -1.098266    -3.318801    17.303488    -3.606137    -31.263828    46.252728    -53.717972    25.760502    0.369718    -37.470291    57.419079    7.565952    -3.078722    9.657630    17.290300    -3.271235    16.266685    47.017418    58.715889    -22.148670    -9.357515    57.166531    -40.748665    1.219764    4.432419    -4.079698    -25.735973    -10.699720    -3.747553    42.285690    17.052631    -8.379461    -9.992360    -18.588631    0.217767    -5.352278    -0.243845    -3.142138    -26.413284    2.161036    8.511873    44.070435    -0.633756    4.601581    -5.844341    -11.952947    -0.401907    -11.331942    0.442291    
-5.041565    81.467232    115.952454    -0.422133    -8.383191    -178.888092    -1.065303    -7.945160    0.962549    0.227988    6.109306    1.024340    3.672999    -1.096426    0.705739    -1.716404    -34.428371    -0.592002    -3.521288    17.413488    -3.540215    -31.739567    45.809723    -53.495392    24.454905    1.437683    -34.804958    57.353344    7.470358    -3.182983    9.861716    17.501339    -3.213856    16.686844    46.630215    58.624565    -21.679256    -8.210829    54.448372    -41.376312    1.225686    4.921284    -4.142569    -26.256777    -10.476238    -3.606594    43.309414    16.941481    -8.284581    -10.496640    -18.624779    0.189690    -5.336134    -0.212400    -2.846421    -26.861307    2.480059    8.575153    44.940258    -0.612089    4.135059    -6.294310    -12.555506    -0.359665    -11.251631    0.395753    
-5.021717    81.148491    115.979752    -0.393253    -8.379757    -178.946014    -1.050710    -8.059712    0.981358    0.210325    6.454580    1.043483    3.547992    -1.087932    1.238091    -1.676517    -35.254562    -0.013333    -3.718087    17.492418    -3.456555    -32.278728    45.267906    -53.100372    22.942913    2.509278    -32.003571    57.127693    7.439086    -3.170076    10.062852    17.707104    -3.170903    17.217579    46.161873    58.420986    -20.998350    -6.967327    51.512131    -41.856110    1.231894    5.373498    -4.185240    -26.688602    -10.208920    -3.428990    44.178200    16.772032    -8.192287    -11.003951    -18.642761    0.165053    -5.289026    -0.184797    -2.548539    -27.225031    2.771043    8.581463    45.669682    -0.589736    3.689553    -6.751698    -13.092085    -0.321794    -11.142700    0.354017    
-4.998218    80.863503    115.990738    -0.374468    -8.384951    -179.009842    -1.048482    -8.219748    0.996969    0.189627    6.806202    1.061040    3.379775    -1.058304    1.805586    -1.576317    -36.077377    0.636699    -3.901620    17.537085    -3.355640    -32.910660    44.610748    -52.495155    21.210062    3.543356    -29.074980    56.708138    7.473372    -2.999225    10.256464    17.901369    -3.144775    17.900064    45.605335    58.056366    -20.070038    -5.658428    48.346699    -42.151897    1.233424    5.753936    -4.210953    -27.028294    -9.913218    -3.225959    44.889343    16.555912    -8.100738    -11.506034    -18.636995    0.145784    -5.215183    -0.163198    -2.255308    -27.496931    3.022346    8.518800    46.252522    -0.551358    3.274249    -7.210648    -13.556387    -0.288724    -11.006210    0.317563    
-4.972453    80.624237    115.983238    -0.367709    -8.393127    -179.075150    -1.059661    -8.412219    1.010049    0.166262    7.145673    1.077600    3.173995    -1.009481    2.391357    -1.421583    -36.871174    1.338678    -4.062381    17.543249    -3.240017    -33.651733    43.833454    -51.654217    19.294312    4.464764    -26.100517    56.071026    7.560185    -2.636650    10.431820    18.072474    -3.138724    18.761286    44.964188    57.486755    -18.883245    -4.363718    45.020351    -42.224140    1.215724    6.017136    -4.222953    -27.261978    -9.609585    -3.014043    45.423622    16.312965    -8.009596    -11.978245    -18.606062    0.133147    -5.121730    -0.149025    -1.981374    -27.661774    3.219813    8.380883    46.669430    -0.485617    2.907573    -7.650087    -13.932473    -0.260764    -10.850752    0.286736    
-4.945442    80.437401    115.955444    -0.374178    -8.397954    -179.138779    -1.085371    -8.624895    1.021805    0.141250    7.459976    1.094489    2.936110    -0.941579    2.988823    -1.222782    -37.628422    2.080930    -4.195222    17.508890    -3.109412    -34.529510    42.913830    -50.545799    17.218353    5.212931    -23.108465    55.192127    7.670279    -2.055830    10.580664    18.212652    -3.155447    19.837805    44.228340    56.663246    -17.422579    -3.157355    41.548531    -42.049435    1.149789    6.131020    -4.224939    -27.382814    -9.311164    -2.805210    45.777241    16.062420    -7.918956    -12.400130    -18.555223    0.127017    -5.017918    -0.142135    -1.736122    -27.711357    3.358669    8.168754    46.914001    -0.387675    2.599363    -8.053473    -14.215433    -0.236937    -10.684926    0.260464    
-4.918596    80.312111    115.906235    -0.394394    -8.395168    -179.197098    -1.126295    -8.845299    1.033567    0.117255    7.733642    1.112748    2.674461    -0.858850    3.585196    -0.995567    -38.331020    2.842135    -4.297476    17.432310    -2.961778    -35.555855    41.831352    -49.156384    15.042079    5.718929    -20.155043    54.064659    7.756873    -1.248363    10.694392    18.312658    -3.200207    21.149225    43.386333    55.549412    -15.701877    -2.138378    37.983841    -41.617325    0.991676    6.075634    -4.219769    -27.385826    -9.034002    -2.614227    45.943027    15.828618    -7.831557    -12.742030    -18.494444    0.125620    -4.915275    -0.140543    -1.531435    -27.640276    3.435149    7.892070    46.976738    -0.259643    2.363454    -8.396210    -14.398203    -0.216753    -10.520288    0.238211    
-4.893512    80.256561    115.835449    -0.427832    -8.383762    -179.246689    -1.181710    -9.064587    1.046699    0.096961    7.953970    1.133621    2.397836    -0.764689    4.167353    -0.757083    -38.965195    3.599209    -4.369019    17.312433    -2.793398    -36.730770    40.561085    -47.488338    12.845874    5.925837    -17.292347    52.701271    7.761506    -0.227698    10.766508    18.365208    -3.278915    22.702559    42.418312    54.121796    -13.765071    -1.405785    34.381031    -40.936489    0.686773    5.856617    -4.209081    -27.272459    -8.794071    -2.456410    45.918007    15.638021    -7.751915    -12.972011    -18.437668    0.126622    -4.827120    -0.141639    -1.378291    -27.450312    3.448738    7.568083    46.852501    -0.110104    2.213502    -8.651891    -14.475967    -0.200677    -10.368705    0.220488    
-4.871900    80.277237    115.744247    -0.472957    -8.365762    -179.285141    -1.248582    -9.276643    1.062935    0.080953    8.111478    1.158543    2.117047    -0.665375    4.721180    -0.525169    -39.516777    4.326942    -4.411326    17.149227    -2.598405    -38.033451    39.080692    -45.570850    10.732274    5.802576    -14.570838    51.139954    7.627788    0.965117    10.794478    18.364639    -3.397247    24.484503    41.299408    52.380146    -11.695731    -1.038886    30.800823    -40.039028    0.185592    5.508951    -4.192785    -27.051058    -8.604292    -2.344590    45.704449    15.513005    -7.686348    -13.058608    -18.400059    0.127333    -4.766819    -0.142418    -1.285797    -27.151176    3.402644    7.220185    46.542664    0.047349    2.162523    -8.794033    -14.446575    -0.190705    -10.241165    0.209487    
-4.855164    80.379852    115.633034    -0.528127    -8.343843    -179.311722    -1.323577    -9.480747    1.084519    0.069325    8.202355    1.189276    1.838505    -0.564203    5.238571    -0.312883    -39.982098    5.008956    -4.426589    16.941149    -2.369030    -39.442776    37.350822    -43.427189    8.788431    5.351782    -12.005033    49.425400    7.316092    2.282426    10.777464    18.307621    -3.561397    26.487535    39.982586    50.323009    -9.581041    -1.077674    27.258448    -38.966282    -0.548819    5.083329    -4.168353    -26.729065    -8.468326    -2.283596    45.303665    15.464306    -7.642257    -12.972489    -18.395861    0.126124    -4.744868    -0.141060    -1.259938    -26.751644    3.301413    6.868741    46.047745    0.198401    2.223437    -8.798149    -14.306959    -0.189604    -10.145726    0.208245    
-4.844646    80.568817    115.503021    -0.590716    -8.320014    -179.325897    -1.401905    -9.674744    1.112951    0.061425    8.223966    1.227162    1.569223    -0.464625    5.706604    -0.130405    -40.355022    5.625067    -4.416136    16.688519    -2.099467    -40.910889    35.346428    -41.111858    7.114263    4.620627    -9.628058    47.639198    6.821464    3.650211    10.716116    18.191849    -3.774987    28.672779    38.423183    47.983265    -7.542075    -1.521805    23.794399    -37.780804    -1.519630    4.640504    -4.131025    -26.314589    -8.383656    -2.271781    44.718933    15.492301    -7.627304    -12.686168    -18.437538    0.123704    -4.770822    -0.138359    -1.305230    -26.262455    3.150759    6.535452    45.372765    0.325953    2.409387    -8.639975    -14.052858    -0.200109    -10.091286    0.219762    
-4.841075    80.843735    115.356087    -0.657401    -8.294277    -179.328125    -1.478736    -9.855724    1.149085    0.056720    8.177899    1.272485    1.314486    -0.368414    6.112556    0.018346    -40.632423    6.158670    -4.379886    16.393826    -1.788633    -42.367912    33.065781    -38.704136    5.787270    3.705514    -7.472895    45.886448    6.185362    4.983362    10.612247    18.019041    -4.037053    30.970499    36.585121    45.430580    -5.705795    -2.318990    20.454996    -36.557636    -2.688326    4.235968    -4.073924    -25.816854    -8.338949    -2.301312    43.960758    15.584769    -7.646658    -12.183399    -18.531862    0.123663    -4.850037    -0.138335    -1.421460    -25.695868    2.958756    6.238679    44.531353    0.412758    2.728021    -8.303138    -13.682815    -0.224158    -10.083941    0.246168    
